<svg id="Layer_1" data-name="Layer 1" xmlns="http://www.w3.org/2000/svg" xmlns:xlink="http://www.w3.org/1999/xlink" viewBox="0 0 1920 1080"><defs><style>.cls-1{fill:none;}.cls-2{fill:url(#linear-gradient);}.cls-3{clip-path:url(#clip-path);}.cls-4{fill:#fce598;}.cls-5{fill:url(#Nova_amostra_de_gradie_copiar_3);}.cls-6{fill:url(#linear-gradient-2);}.cls-7{fill:url(#Nova_amostra_de_gradie_copiar_3-2);}.cls-8{fill:url(#linear-gradient-3);}.cls-9{fill:url(#linear-gradient-4);}.cls-10{fill:url(#Nova_amostra_de_gradie_copiar_3-3);}.cls-11{fill:url(#linear-gradient-5);}.cls-12{fill:url(#linear-gradient-6);}.cls-13{fill:url(#linear-gradient-7);}.cls-14{fill:url(#linear-gradient-8);}.cls-15{fill:url(#Nova_amostra_de_gradie_copiar_3-4);}</style><linearGradient id="linear-gradient" x1="968.68" y1="609.6" x2="968.68" y2="-941.35" gradientTransform="matrix(0, 2.14, -0.87, 0, 1413.45, -1531.89)" gradientUnits="userSpaceOnUse"><stop offset="0" stop-color="#ffcf6c"/><stop offset="0.7" stop-color="#f3996c"/><stop offset="1" stop-color="#a36e63"/></linearGradient><clipPath id="clip-path"><rect class="cls-1" x="10.72" y="-830.23" width="1898.66" height="1931.81" transform="translate(822.02 1095.39) rotate(-89.86)"/></clipPath><linearGradient id="Nova_amostra_de_gradie_copiar_3" x1="954.02" y1="1616.26" x2="936.49" y2="740.01" gradientTransform="matrix(1, 0, 0, 0.99, 1.25, 4.17)" gradientUnits="userSpaceOnUse"><stop offset="0" stop-color="#ffcf6c"/><stop offset="0.25" stop-color="#f3996c"/><stop offset="0.52" stop-color="#a36e63"/><stop offset="0.73" stop-color="#725269"/><stop offset="0.97" stop-color="#19203f"/></linearGradient><linearGradient id="linear-gradient-2" x1="957.92" y1="1066.62" x2="957.92" y2="565.87" gradientTransform="matrix(1, 0, 0, 0.99, 1.25, 4.17)" gradientUnits="userSpaceOnUse"><stop offset="0.01" stop-color="#ffcf6c" stop-opacity="0"/><stop offset="0.06" stop-color="#ffce6c" stop-opacity="0.02"/><stop offset="0.12" stop-color="#feca6c" stop-opacity="0.09"/><stop offset="0.19" stop-color="#fdc46c" stop-opacity="0.2"/><stop offset="0.26" stop-color="#fbbc6c" stop-opacity="0.35"/><stop offset="0.34" stop-color="#f9b26c" stop-opacity="0.54"/><stop offset="0.41" stop-color="#f6a56c" stop-opacity="0.77"/><stop offset="0.48" stop-color="#f3996c"/><stop offset="0.97" stop-color="#ffcf6c"/></linearGradient><linearGradient id="Nova_amostra_de_gradie_copiar_3-2" x1="1390.56" y1="559.16" x2="1387.65" y2="1144.56" xlink:href="#Nova_amostra_de_gradie_copiar_3"/><linearGradient id="linear-gradient-3" x1="487.05" y1="1018.29" x2="487.05" y2="607.77" xlink:href="#linear-gradient-2"/><linearGradient id="linear-gradient-4" x1="95.77" y1="942.97" x2="108.08" y2="582.38" xlink:href="#linear-gradient-2"/><linearGradient id="Nova_amostra_de_gradie_copiar_3-3" x1="1794.59" y1="481.65" x2="1882.16" y2="1186.61" xlink:href="#Nova_amostra_de_gradie_copiar_3"/><linearGradient id="linear-gradient-5" x1="267.95" y1="796.21" x2="309.47" y2="533.96" xlink:href="#linear-gradient-2"/><linearGradient id="linear-gradient-6" x1="288.05" y1="799.27" x2="329.55" y2="537.17" xlink:href="#linear-gradient-2"/><linearGradient id="linear-gradient-7" x1="104.42" y1="943.25" x2="116.73" y2="582.66" xlink:href="#linear-gradient-2"/><linearGradient id="linear-gradient-8" x1="-23.32" y1="1210.39" x2="2.57" y2="620.35" xlink:href="#linear-gradient-2"/><linearGradient id="Nova_amostra_de_gradie_copiar_3-4" x1="522.8" y1="1763.43" x2="522.8" y2="771.33" xlink:href="#Nova_amostra_de_gradie_copiar_3"/></defs><rect class="cls-2" x="414.97" y="-423.99" width="1090" height="1929.97" transform="translate(416.62 1499.64) rotate(-89.86)"/><g class="cls-3"><path class="cls-4" d="M802.69,667.4s-8.92-.52-11.79,2.56-8.82,5-10.81,5-4.62,1.31-5.28,0-4.4-2.48-5.06-3.56-2.2-1.79-5.07,0-5.08,4.63-7.06,5.29-3.75,1.31-6.39,2-4.42,2.85-6.62,2.85-21.14-1.38-27.32,1.25S700.31,688,697,688s-63,1.83-62.12,1.61,164.33.4,164.33.4Z"/><path class="cls-4" d="M951.88,865.81s7.62-7.59,10.88-7.21,10.5-2.15,10.5-2.15,4.71-1.33,6.7-1.92,10.68-.83,11.76,0,3.28-7.46,5.82-9.63,5.8-3.6,6.89-5.41,2.19-11.21,2.56-12.66,4.37-9,4.37-9,3.62-.72,4.35-3.61,7.25-5.05,8.71-5.41,6.51-1.79,9.77,0S1041,817.18,1040,819s-.76,10.86-1.49,11.94-4.71,6.06-4.71,6.06,6.5,3.35,8,2.63,7.24,1.47,7.24,1.47l5.78,4,11.58,4.73,2.87,6.53s6.52-2.28,8-3.12,7.25-1.91,7.25-1.91,4.42,1.92,5.47,3.5,8.27,0,8.27,0a14.56,14.56,0,0,0-1.07-6.48c-1.43-3.89.49-16.91,1.18-17.27s4.66,1.09,6.46,1.82,5.8,0,6.89-1.07,6.87.38,7.6-1.07,2.54-2.89,3.27-5.41,6.18-10.12,8.72-11.2,12.68-7.18,14.49-5.92,8.31,6.7,9.76,6.7,12.3,2.93,13,5.46,1.78,12.67,0,15.2a43.52,43.52,0,0,1-4,4.7s8.33-1.07,9.41-1.07,11.21,6.18,11.21,6.18,4.7,3.09,5.78,3.18,5.42,5.42,6.87,4.94,5.77,5,5.77,7.49-1.85,17.37-2.58,18.44-2.93,11.93-9.82,19.88-25.77,28.9-31.93,31.78-33.71,15.83-40.58,13.29-37.63-3.72-44.87-4.46-40.18-5.16-44.15-5.89-44.86-11.7-44.86-11.7-18.81-4.75-21.7-6.93-20.23-19.23-20.59-20.31S951.88,865.81,951.88,865.81Z"/><path class="cls-4" d="M1992.16,809.83s-7.58-7.62-10.84-7.26-10.49-2.2-10.49-2.2-4.71-1.35-6.69-2-10.68-.88-11.77,0-3.23-7.48-5.77-9.66-5.78-3.63-6.86-5.44-2.14-11.22-2.5-12.67-4.32-9.06-4.32-9.06-3.62-.73-4.33-3.63-7.23-5.09-8.68-5.45-6.51-1.83-9.77,0-6.9,8.3-5.82,10.11.7,10.86,1.42,11.95,4.69,6.08,4.69,6.08-6.52,3.32-8,2.6-7.24,1.43-7.24,1.43l-5.81,4-11.59,4.68-2.92,6.51s-6.51-2.31-8-3.16-7.24-2-7.24-2-4.43,1.9-5.48,3.48-8.27,0-8.27,0a14.6,14.6,0,0,1,1.09-6.48c1.46-3.88-.4-16.91-1.08-17.28s-4.67,1.07-6.48,1.79-5.8,0-6.88-1.1-6.88.35-7.6-1.1-2.53-2.9-3.24-5.44-6.13-10.14-8.66-11.23-12.65-7.24-14.47-6-8.34,6.66-9.78,6.66-12.32,2.86-13,5.39-1.84,12.66,0,15.2a43.57,43.57,0,0,0,4,4.72s-8.32-1.11-9.41-1.11-11.23,6.12-11.23,6.12-4.72,3.07-5.8,3.15-5.44,5.39-6.89,4.9-5.8,4.94-5.81,7.47,1.77,17.37,2.49,18.46,2.87,11.94,9.72,19.93,25.63,29,31.78,31.92,33.63,16,40.51,13.49,37.65-3.53,44.89-4.24,40.2-5,44.19-5.67,44.9-11.48,44.9-11.48l33-5.84Z"/><path class="cls-4" d="M1257.67,584.22s-47.44-7.12-55-8.49S1186,572.46,1180,571.9s-15.09-2.73-17.79-1.66-5.11-2.44-8.35-4.33-10-1.91-10-1.91-1.34-4.32-7.54-3.52-10.26,3.75-8.65,8.33c0,0-7.55.25-12.14,1.86s-7.29,4.56-11.61,5.63-11.33,1.05-13.22,1.31-15.37,3.2-17.8,3.2-29.13,2.89-29.13,2.89l213.83.52"/><path class="cls-4" d="M1465.61,571.46l3.09,1.51-13.65,0-82.34-.2,7.2-1.06,8.27-1.78s8.82-2.31,12.24-3.38,6.28,2.17,7,1.45,5.39,0,5.39,0,1.43-5.43,4.93-6.89c5.93-2.48,9.83-.8,9.83-.8,1.46-6.29,7.27-6.08,10.15-5.7a7,7,0,0,1,6.33,6.82s6.28,2.89,8.79,3.61S1465.61,571.46,1465.61,571.46Z"/><path class="cls-4" d="M1774.71,437.62l6.62,3.22-29.16-.07-175.86-.43,15.37-2.27,17.67-3.79s18.82-4.94,26.13-7.23,13.42,4.64,15,3.11,11.51,0,11.51,0,3.06-11.6,10.53-14.71c12.67-5.29,21-1.71,21-1.71,3.11-13.42,15.52-13,21.68-12.18,13.38,1.76,13.5,14.57,13.5,14.57s13.42,6.17,18.79,7.72S1774.71,437.62,1774.71,437.62Z"/><path class="cls-4" d="M371.35,500l-34.13-10.51s-7.53-6.48-12.93-6.14-10.79,3.93-10.79,3.93-7.19-2.57-11.5-4-10.42,0-10.42,0,4.34-11.48-1.75-18.32a12.79,12.79,0,0,0-13.66-4S282.32,446.58,269,444c0,0-1-13.66-18.31-13.7,0,0-1-12.58-11.11-13,0,0-12.94-.75-15.48,7.51,0,0-17.26-.4-13.7,17.58,0,0-15.44-7.59-21.23,7.85,0,0-14-1.83-12.61,11.83,0,0-18.67-14.78-28.77,1,0,0-13.68,4.64-10.46,12.55,0,0-13.32,6.08-20.15,10s-13.32,6.07-16.2,5.71-7.55,1.77-9,2.49-9.37,5.37-12.24,5.36l268.92.66Z"/><path class="cls-5" d="M1948.12,819.28c-14.44-16-38.3-27.6-41.91-28.33s-19.51-18.14-19.51-18.14-7.21-12.32-7.21-15.94S1873,746,1873,746s-28.23-.79-31.85-4.42S1826,734.3,1826,734.3l-17.37,0S1787,700.19,1781.19,690a352.33,352.33,0,0,1-18-36.95c-5.77-13.77-15.82-50-27.37-60.86s-33.95-31.93-38.26-43.52-8.66-15.22-8.66-15.22-1.9,6-4.85,13.76c-3.63,9.62-8.86,22-14.07,29.61-9.45,13.73-34.18,62.17-41.45,74.45s-6.56,16.63-15.26,23.12-11.63,15.17-23.23,24.55-15.24,15.16-22.49,20.93,0,5.07-11.62,10.11-8,20.24-11.64,23.85-6.53,7.22-18.85,10.81-35.51,17.29-43.5,27.4a78.62,78.62,0,0,1-29,22.36,130.31,130.31,0,0,0-21,12.8l-8.69-.08s-4.93-4-11.14-9.51c-6.62-5.84-14.71-13.29-19.92-19.28-10.11-11.6-21-18.14-33.23-29.75-10.27-9.72-26.07-24.47-31-29l-1.54-1.44s-21.78,26.73-37.73,35.37-36.27,28.86-44.25,35.36-8.71,11.2-18.86,17.87S1203.8,847.85,1193,847.1s-52.18,17.24-55.8,18.68-10.88,10.11-10.88,10.11-26.88,34.67-78.3,40.33c0,0-6.07-2.78-13.27-6.51-9.29-4.81-20.43-11.21-22.87-15.29-4.32-7.24-17.3-31.16-20.18-37.68s-14.44-13.07-14.44-13.07S943.94,829.49,938.88,826s-26-15.81-26-15.81-10.13-3.64-13-10.88-26.68-43.49-33.16-56.54-15.88-21.75-24.52-38.42-17.29-37.67-23-49.27c-4.08-8.21-11-19.68-14.78-25.68-1.53-2.46-2.52-4-2.52-4s-19.66,43.37-26.93,55.66-8,26.76-13.83,31.09-29.25,26.7-36.4,37.54-13,21.68-20.23,28.9-8.71,7.22-13.79,13-10.91,18.79-16.7,19.5S657.25,826.24,650,828.4c0,0-8.11-2.39-15.78-5.53a62.46,62.46,0,0,1-9.54-4.67c-8-5.08-11.57-4.37-13-9.44s-8-7.26-13.73-12.34-10.11-9.43-20.22-21-15.17-13.8-21.68-15.26-42-11.68-44.84-17.48-21.66-23.21-28.17-27.57-19.48-28.27-28.13-40.59-26-36.26-33.93-42.79-12.26-16-15.14-25.37-11.52-24.63-11.52-24.63l-1.9.77c-4.16,1.68-14.6,5.78-24.19,8.57-12.32,3.59-25.37,12.24-40.57,12.21s-22.45,2.84-25.34.66-23.88-5.13-23.88-5.13-15.24,13-24.67,20.21-15.25,19.5-24.66,21.65-21.76,15.14-24.67,20.93-11.62,14.44-20.32,18S145,696.16,135.59,696.86a52.48,52.48,0,0,0-9.54,1.8,12,12,0,0,1-9.29-1.12c-7.23-3.64-33.25-23.24-40.47-29-6.05-4.86-20.17-9.73-24.63-11.19-.87-.29-1.41-.45-1.41-.45S43,667,37.91,674.19s-45,64.3-50.86,70.07-29.76,34.67-41.37,43.32-39.28,39.25-51.6,48.63L-107.38,1352l2098.2,5.15.92-372.58V983l.31-126.23S1962.56,835.24,1948.12,819.28Z"/><path class="cls-6" d="M816.18,674.29c1.08,1.45,5,12.31,5.75,14.12S824.44,700,824.44,700s9.37,18.84,5.74,19.92-12.6-5.1-12.6-5.1l-6.92-5.45s2.49,17.74,3.93,21.72,2.25,11.95,2.91,16.3-.34,13.38,0,16.64,1.47,11.22,0,13-7,17-7,17,3.72,8.69,6.9,12.68,6.43,15.1,7.87,19,6.13,13.29,7.57,15.1,5.4,13.4,5.39,15.57-9.78-1.11-11.22-2.2-14.45-8.72-15.9-11.62-7.22-7.62-7.22-7.62,7.89,27.89,9.69,33,2.12,21.36,2.47,25,1.77,17.36.68,21.34-8,8.31-8,8.31l-7.24,2.15,13,12,13,12.69s1.08,1.45,9,5.09,20.22,16.7,19.45,38.77a82,82,0,0,1-10.59,37.6s16.61,20.32,30.36,20,31.1,11.66,31.46,14.2,74.2.18,74.2.18,68.68,43.88,70.31,44.43S1112,1079,1112,1079l-35.17-50s-9.2-16.85,1.68-21.16l19-7.55s-21.67-22.31-22.2-25.57-2.14-11.4-3.77-13.58-22.73-29.91-23.81-32.08-9.37-17.4-13.07-19.36c-9.29-4.81-20.43-11.21-22.87-15.29-4.32-7.24-17.41-31.54-20.29-38.06s-15.44-13.87-15.44-13.87-28.9-12.32-34-15.77S914.07,809,914.07,809s-10.51-3.25-13.38-10.49-25.1-42.27-31.58-55.32-16.76-22.61-25.41-39.28S826.05,666.59,820.28,655c-4.08-8.22-12.21-19.56-15.94-25.56l0,18.41C804.29,649.65,815.1,672.83,816.18,674.29ZM886.4,823.91c3.79,4.53,9,11.78,9,11.78l3.07,1.82,6.33,2.37s6.67,10.51,7.4,11a15.48,15.48,0,0,0,5.78,2c1.63,0,15,4.73,15.73,5.1s8.49,10.88,9.75,12.51a53.83,53.83,0,0,0,6.32,6.53c1.44,1.09,5.05,4.35,5.05,7.79a16.52,16.52,0,0,0,3.23,8.88c1.27,1.63,10.84,8,11,10.88S972.87,915,972.87,915l-21.5-14.17a73.69,73.69,0,0,0-9-1.47c-2.35,0-6.16,2.88-6.7,2.88a69.1,69.1,0,0,1-9-4.36c-.54-.54-6.5-8.34-8.48-10.34s-17.18-6-17.72-6S888.61,880,888.61,880,876.7,868.39,876,868.21s-3.24-10.32-3.24-10.32,1.18-37.81-2-49.4C870.69,808.49,882.61,819.38,886.4,823.91Z"/><path class="cls-7" d="M1335.4,767.11l5,9.06s2.51,8,3.59,8.7,0,9,0,9l-2.9,1.8s7.11,6.53,3.36,8.7-7,4.32-7,4.32,7.09,15.22,8.06,16.3,8.53,6.9,8.53,6.9,17,16.33,19.15,18.14a127.83,127.83,0,0,1,10.11,9.8c2.16,2.54,7.22,9.06,7.22,9.06s1.46-5.42,8.7-4.32,14.47,4,18.08,8,7.58,6.9,12.64,10.89,11.92,7.63,13.73,10.16,5.41,7.26,5.41,7.26-9.69-33.33-14-41.66,3.27-8-7.92-17.39-11.91-14.87-13.72-17c-.83-1-1.19-4.05-1.37-7.19-6.62-5.84-14.78-15.06-20-21-10.1-11.61-19.85-16.42-32.13-28-10.27-9.71-27.1-24.43-32-29a41.83,41.83,0,0,1,1.7,5.08C1330.38,747.92,1335.4,767.11,1335.4,767.11Z"/><path class="cls-8" d="M392.12,596.89c1.63,1.63,4.3,15.75,4.3,19.55S394,630.55,394,630.55l-6.89,16.81s13,10.89,15.17,12.52,5.39,17.93,5.39,17.93,1.59,16.28,3.22,16.29,7.52,27.7,7.52,27.7l-4.35,4.87s2.14,12.49,4.31,15.21,2.15,8.15-3.29,11.39a152.79,152.79,0,0,1-14.13,7l-11.4,0s20.05,14.16,24.91,25,12.41,33.68,11.31,36.39-7.09,15.73-7.09,15.73l-8.69,0-16.29,0s7.57,13.59,7,19-3.83,11.93-3.83,11.93l6.5,10.33s-8.73,15.18-16.89,22.22-17.93,3.21-17.93,3.21l-10.81-20.65s-10.86-1.65-10.31-4.37,1.08-11.94,0-16.83-5.32-37.7-5.32-37.7S330.67,855.12,327.4,860s-12.54,19-13.08,20.59,5.36,26.61,5.36,26.61,7.59,4.91,7.58,8.71,5.42,6.53,5.42,6.53h6.51c2.72,0,4.3,17.2,4.85,19.19s1.6,9-.58,12.85-14.72,22.22-14.72,22.22l-6,10.84,36.3,34.83L558.81,1044l56.5-17.78L621.36,998s0-6-3.23-9.78-12.44-23.91-3.74-26.6S648,976.4,648,976.4l.05-20.63s-1.06-12.67,1.66-13.39,8.14,0,8.14,0-9.18-17.57-11.89-22.46-9.18-16.85-15.68-25-10.27-20.11-9.17-25,9.81-14.09,9.81-14.09l3.81-4.87,13.56,4.37s-9.74-13.05-11.9-16.85-2.79-11.7-2.18-15.63c-3.56-1.45-6.19-4.63-8.71-6.24-7.95-5.09-10.81-4.12-12.24-9.19s-9.54-5.94-15.32-11-8.33-10.14-18.44-21.74-16.34-14.45-22.85-15.91S515.78,747,512.9,741.18s-22.19-22.52-28.7-26.87-18.42-27.88-27.08-40.2-26.76-37.52-34.72-44.05-11.63-15.32-14.51-24.73S394.45,581,394.45,581a5.63,5.63,0,0,1-2,1.52C391.93,589,391.26,596,392.12,596.89ZM494.91,751.3c1.89,2.45,11.64,12,13.27,12.79s11.36,16.58,13.8,18.21,17.09,6.83,18.17,7.11,24.14,10.91,24.14,10.91-4.32-11.14-3.23-11.13,9.2,10.33,10.56,11.15,8.93,9.25,10,10.07,0,13.63,3.76,14.69,9.49,4.34,10.85,4.07,13.29,8.44,13.29,8.44l-7.08,6.5s-3.8.26-3.81,2.43,1.88,8.15,1.88,8.15-9.76-3.28-11.66-3-12.22,1.32-14.13,3-2.48,16-1.94,16.82,2.68,14.93,4,17.92,8.65,15.5,8.65,15.5-14.36-11.71-15.72-11.71-14.1-7.37-14.1-7.37-12.2-7.35-11.92-10.34-4.57-16-4.57-16l-6.5-7.88s4.09-5.42,4.9-6.23,3.56-9.22,1.67-14.11S526.53,807,524.91,803.75s-13.82-10.34-15.18-10.35-5.44,5.42-5.44,5.42l-13.56-4.92-4.36-1.1s1.4-11.66,2.22-13.56,1.65-7.33,1.92-8.14-4.84-16-5.38-19.28-6.73-24.44-6.73-24.44S493,748.85,494.91,751.3Z"/><path class="cls-9" d="M59.88,679.67c.82,1.09,7.3,12.77,7.3,14.13s-1.11,7.32,0,7.33,12.2,7.08,12.2,7.08,12.22-.24,13.56,3.56,3,9.51,4.87,10.33,9.22,4.09,10.85,4.1,6.76,7.61,8.12,8.7,8.14,1.65,9.77,1.92,11.93,4.1,13,5.19S155,758.61,155,758.61s-25.42-38.33-25.69-41.05-2.86-15.13-2.67-17.1a4.94,4.94,0,0,0-.57-1.8,12,12,0,0,1-9.29-1.12c-7.23-3.64-33.25-23.24-40.47-29-6.05-4.86-20.17-9.73-24.63-11.19,1.8,4.13,5,11.26,5.8,12.05C58.55,670.44,59.07,678.58,59.88,679.67Z"/><path class="cls-10" d="M1948.12,819.28c-14.44-16-38.3-27.6-41.91-28.33S1888,772.82,1888,772.82s-7.16-13.23-7.15-16.85-7.33-12.11-7.33-12.11-27.77.45-31.38-3.18-15.68-7.72-15.68-7.72l-17.32-.7s-21.1-33.06-26.87-43.21A337.23,337.23,0,0,1,1764,652.73c-5.76-13.76-15.76-50.14-27.31-61s-33.83-31.81-38.15-43.4-9.44-16.2-9.44-16.2-2.11,7.34-5.06,15.14c3.19,5.81,6.91,12.32,8.59,14.29,3.25,3.81,15.69,22.3,15.68,28.81l0,15.2s10.85,3.83,11.38,8.71-2.25,31.48-.08,33.11-9.78,0-15.74-3.29-7-5.45-8.13-7.62-13-17.41-13-17.41,3.2,22.81,3.18,33.67,1.57,23.88-.06,25-7.62,6.49-7.62,6.49,23.31,13.09,25,13.63,16.8,7.64,20.06,12.54,8.63,21.19,8.62,25-1.67,14.65-6,15.18-11.95.51-15.21,2.68-2.73,8.13-1.11,8.13,6.49,12,1.06,13-13.6,8.1-15.77,8.1-8.14-3.28-9.23,0-4.93,17.9-4.39,20.61,6.46,17.93,16.76,29.35,22.72,33.71,25.41,40.77,8.1,20.11,8.1,20.11,16.83,2.21,24.43.06,14.66.58,21.17,5.48,28.71,23.41,36.3,29.94,18.43,14.16,20.6,18S1844.24,962,1844.24,962s-1.06-10.32,0-11.94,8.16-4.86,12.5-3.23,9.76,2.74,16.27,9.81,19,10.91,19.51,12.54,5.38,20.63,5.38,20.63,8.71-7,9.8-11.37,21.72.06,25,.06,11.39,6,19.54,5.48,10.84,8.71,12.47,9.8,13.57,0,13.57,0,9.27-4.41,13.46-9.24l.31-127.8S1962.56,835.24,1948.12,819.28Zm-93.79,14.33s-16.29,2.68-24.16-1.14-20.32-18.24-20.32-18.24-7.58-5.72-6.22-9.24,4.39-19.26,4.39-19.26l10.31,4.91s.82-4.07.56-5.15-.26-8.69-.52-12.49-10.27-17.66-10.27-17.66l37.72,4.43s13.29,6.82,13.28,9.26,5.39,16.57,5.39,16.57l7,5.17s9.73,17.94,10,19.84,6,4.63,8.13,6.26,14.09,9.81,17.62,12.8,9.17,20.38,9.17,20.38-42-21.82-43.93-21.79S1854.33,833.61,1854.33,833.61Zm69.79,105.21c-4.34-2.18-9.21-9-12.19-10.08s-27.14-7.12-27.14-7.12a56.25,56.25,0,0,1-9.47-10.88,28.25,28.25,0,0,0-10.57-9.79c-1.62-.82-5-4.63-5-4.63s10.66.84,10.42-7.3c0-.82,1.34,4.88,9.75,7.89s16.82,5.2,22,9.83a137.66,137.66,0,0,0,16.8,12.79,114.63,114.63,0,0,1,12.46,9.53l8.39,8.44S1928.45,941,1924.12,938.82Z"/><path class="cls-11" d="M262.08,631.49s4.54-5.77,6.36-7.58,4-4.51,4-6,2.19-8,3.46-8.5,6.52-.89,7.61-1.61a26.77,26.77,0,0,0,3.44-3.79s15.91,10.17,16.81,10.9,4.33,3.81,5.23,5.62.89,7.24,2,8.33,3.17,4.89,3.93,6.16.73,10.13,2,12.13,3.23,7.61,3.05,9.41,0,10.86,0,10.86L307.82,653s-9.4-4.37-11.39-5.64-5.05-6.35-6.32-7.8-3.79-2.18-5.42-2.9-5.59-6.71-5.77-7.44S265.34,630.24,262.08,631.49Z"/><path class="cls-12" d="M271.06,657.57s22.78,12.18,24.59,13.27,7.56,13.95,8.47,15.4S311.5,700,312,700.37s9.58,8.53,10.12,9.07,1.4,18.28,1.4,19,2.16,5.8,4.14,10.51,5,20.27,5,21,1.25,9.41,1.25,9.41-11.19-13.6-11.55-14.14-6.31-10-6.31-10-3.78-7.06-5.78-8-7.59-.75-8.68-.57-12.32,5.94-15.4,6.48S275.37,749,273.91,752s-6,7.76-6,7.76l5.3-19s11.6-11.73,13.06-13,5.81-7.23,5.81-7.23l-5.4-11.4s-5.22-10.7-6.31-11.6-14.45-12.16-15.17-12.7,0-6.88,0-6.88l7.42-2.33s6.37-12.47-.5-18.1"/><path class="cls-13" d="M36.72,713.81s63.4,52.26,65.84,53.9,22.22,18.78,22.76,20.13,2.14,13.58,2.13,15.21,2.13,16.29,2.13,17.92,1.89,5.08,3,6.35,18.94,24.37,22.19,30.08,13,27.72,13.5,28.8,11.35,23.91,11.35,23.91l-30.36-21.52a91.72,91.72,0,0,1-16.81-6,93.6,93.6,0,0,1-20.06-12.26c-1.9-1.63-13-3.29-16.55-5.74s-8.12-10.33-8.12-11.69-5.92-21.73-7-23.9-8.93-10.61-10.28-12.51-15.18-10.35-15.7-19.58-7-37.2-7.22-45.34-1.06-10-3-13.58S36.72,713.81,36.72,713.81Z"/><path class="cls-14" d="M13,745.23s0,13-3,16.55-4.91,8.4-10.07,10.83-12.52,9.47-12.52,9.47l-9.52,7.3s10.63-15.71,11.72-17.61,5.45-8.94,5.86-9.48,5.58-5.69,6.4-6.5S13,745.23,13,745.23Z"/><path class="cls-15" d="M-101.34,1076.71l11.73-50-.11,43.77s7.24-32.14,8.12-29.46,5.27,35.74,5.27,35.74l10.86-54.46,7,54.5L-44,1022.37l11.48,58.08,12.63-52.66,7,49.14,7.27-48.22,4.35,44.67L6.85,1043l-.1,37.51,10.85-49.1,8.87,49.15,5-36.16,3,36.18,10.76-43.74L55,1095l7.74-40.17L72.84,1095l12.66-56.24,6.12,51.81,10.47-33.24,6.47,45.79,9.4-51.78,4.47,43.78,9.33-38.39,3.62,39.31,5.6-33,4.24,31.27s9.88-46.43,10.79-42.85,5.77,51.82,5.77,51.82,11.19-33,11.19-30.34,7.95,35.75,7.95,35.75,10.79-30.34,10.79-26.77l-.09,33,20-42.27,7.71,49.48,9.87-23.2,7.95,36.64s9.94-40.17,9.93-37.49,6.16,37.53,6.16,37.53l14.39-35.7,7,42,9.8-24.68,8.06,31,8.43-41.53,4.08,41.56,15.47-26.76,5,40.21L341.3,1135l6.58,26.82,14.34-21.41,4.41,26.81,11.71-39.27,7.05,39.31,12.33-19.61,4.63,27.7,7.22-27.67,14.21,31.29,4.52-17.85,6.2,17.88,6.32-27.68-.08,32.16,18-41,9.73,41.1,13-32.12-.08,32.16L498,1152.32l8.85,31.28,14.43-52.23,13.27,52.3,5.1-34,3.85,28.63L557,1136.39l10.16,42.89,10.36-33s5.28,34.84,6.18,32.17,9-32.13,9-32.13l11.56,20.57,6.21-23.21,6.29,28.6,11.66-21.4,11.1,33.06,8.61-50.88,8.15,47.36,12.35-28.56-.07,26.8s9.92-34.81,10.8-32.13,4.42,23.24,4.42,23.24l10.77-21.42-.05,22.33,9.91-31.23,9.75,28.6,6.9-35.71,6.95,35.74,15-33,7.75,29.28,9.44-21.87,3.74,22.12,12.23-66.73,9.43,71.25,7.26-45.53,9.72,43.78,9.88-24.09,9.77,28.61,8.08-15.17,6.17,32.17,5.44-32.14,9.77,24.14,6.31-24.1,8.86,32.18,13.46-25.87,5.28,33.06s7.21-25.88,7.2-21.41,6.21,21.45,6.21,21.45,8.12-32.14,8.11-28.57,7.06,33.07,7.06,33.07l8.43-19.75,5,29.61,12.47-28.22,8.95,37.87,7.45-31.13,9,29.16,9.09-21.41,7.93,29,6.81-27.67,8,28.3s4.54-28.27,4.54-25.6,8,34.86,8,34.86L1017,1209l5.27,34.85,12.58-26.77,8,34,10.79-25.88,8,32.18,12.55-15.15,7.07,30.38,7.19-17,7.09,24.13,6.3-18.74,10.64,31.29,14.34-16.94-.08,32.16c4.47,0,22.33,6.31,22.33,6.31l-92.14,41.75s-606.71,47.07-609.47,47.64c-209.19,42.35-555,66.5-555,66.5l1.12-457.3Z"/></g></svg>